<svg xmlns="http://www.w3.org/2000/svg" viewBox="0 0 32 32" role="img" aria-labelledby="instagramTitle">
  <title id="instagramTitle">Instagram</title>
  <defs>
    <radialGradient id="ig-a" cx="30%" cy="107%" r="150%">
      <stop offset="0" stop-color="#fdf497"/>
      <stop offset=".08" stop-color="#fdf497"/>
      <stop offset=".35" stop-color="#fd5949"/>
      <stop offset=".62" stop-color="#d6249f"/>
      <stop offset="1" stop-color="#285AEB"/>
    </radialGradient>
  </defs>
  <rect width="32" height="32" rx="8" fill="url(#ig-a)"/>
  <path fill="#fff" d="M16 9.1c2.2 0 2.5 0 3.4.1.8 0 1.3.2 1.6.3.4.2.7.3 1 .6.3.3.5.6.6 1 .1.3.3.8.3 1.6.1.9.1 1.1.1 3.4s0 2.5-.1 3.4c0 .8-.2 1.3-.3 1.6-.2.4-.3.7-.6 1-.3.3-.6.5-1 .6-.3.1-.8.3-1.6.3-.9.1-1.1.1-3.4.1s-2.5 0-3.4-.1c-.8 0-1.3-.2-1.6-.3-.4-.2-.7-.3-1-.6-.3-.3-.5-.6-.6-1-.1-.3-.3-.8-.3-1.6-.1-.9-.1-1.1-.1-3.4s0-2.5.1-3.4c0-.8.2-1.3.3-1.6.2-.4.3-.7.6-1 .3-.3.6-.5 1-.6.3-.1.8-.3 1.6-.3.9-.1 1.1-.1 3.4-.1zm0-1.5c-2.3 0-2.6 0-3.5.1-.9 0-1.5.2-2.1.4-.6.2-1.1.5-1.5 1-.5.5-.8 1-1 1.5-.2.5-.4 1.2-.4 2.1-.1.9-.1 1.2-.1 3.5s0 2.6.1 3.5c0 .9.2 1.5.4 2.1.2.6.5 1.1 1 1.5.5.5 1 .8 1.5 1 .5.2 1.2.4 2.1.4.9.1 1.2.1 3.5.1s2.6 0 3.5-.1c.9 0 1.5-.2 2.1-.4.6-.2 1.1-.5 1.5-1 .5-.5.8-1 1-1.5.2-.5.4-1.2.4-2.1.1-.9.1-1.2.1-3.5s0-2.6-.1-3.5c0-.9-.2-1.5-.4-2.1-.2-.6-.5-1.1-1-1.5-.5-.5-1-.8-1.5-1-.5-.2-1.2-.4-2.1-.4-.9-.1-1.2-.1-3.5-.1z"/>
  <path fill="#fff" d="M16 11.8a4.2 4.2 0 1 0 0 8.4 4.2 4.2 0 0 0 0-8.4zm0 6.9a2.7 2.7 0 1 1 0-5.4 2.7 2.7 0 0 1 0 5.4z"/>
  <circle cx="20.4" cy="11.6" r="1" fill="#fff"/>
</svg>
